<svg width="24" height="25" viewBox="0 0 24 25" fill="none" xmlns="http://www.w3.org/2000/svg">
<path d="M8.82005 5.40003L7.54005 3.28003C7.06005 2.50003 6.11005 2.06003 5.22005 2.32003C3.88005 2.72003 3.36005 4.23003 4.03005 5.34003L5.35005 7.51003C5.50005 7.74003 5.81005 7.82003 6.04005 7.68003L8.65005 6.09003C8.89005 5.94003 8.97005 5.63003 8.82005 5.40003Z" fill="#888888"/>
<path d="M19.74 14.7101L16.93 10.9101C15.95 9.59008 14.25 8.97008 12.65 9.40008C12.65 9.39008 12.64 9.39008 12.64 9.38008L10.98 6.65008C10.68 6.18008 10.06 6.03008 9.59 6.32008L6.12 8.43008C5.64 8.71008 5.49 9.34008 5.78 9.82008L7.43 12.5501C7.43 12.5501 7.43 12.5601 7.44 12.5601C6.33 13.7901 6.09 15.5801 6.83 17.0701L8.91 21.3101C9.55 22.6201 11.06 23.1201 12.34 22.4601C12.44 22.4101 12.47 22.2901 12.41 22.1901L10.85 19.6101C10.63 19.2501 10.74 18.7901 11.1 18.5601C11.46 18.3501 11.92 18.4601 12.15 18.8101L13.72 21.3901C13.78 21.4801 13.9 21.5101 13.99 21.4601L14.95 20.8801C15.04 20.8201 15.07 20.7001 15.02 20.6101L13.45 18.0301C13.24 17.6701 13.35 17.2101 13.7 16.9801C14.07 16.7701 14.53 16.8801 14.75 17.2301L16.32 19.8101C16.38 19.9001 16.5 19.9301 16.59 19.8801L17.55 19.3001C17.64 19.2401 17.67 19.1201 17.62 19.0301L16.05 16.4501C15.84 16.0901 15.95 15.6301 16.3 15.4001C16.67 15.1901 17.13 15.3001 17.35 15.6501L18.93 18.2201C18.99 18.3101 19.11 18.3401 19.2 18.2801C20.36 17.4501 20.62 15.8901 19.74 14.7101Z" fill="#888888"/>
</svg>
