<svg width="24" height="25" viewBox="0 0 24 25" fill="none" xmlns="http://www.w3.org/2000/svg">
<path d="M7.79999 22.65C5.14999 22.65 2.98999 20.5 2.98999 17.84V15C2.98999 14.33 3.64999 13.88 4.27999 14.1C4.53999 14.19 4.79999 14.25 5.06999 14.29C5.18999 14.31 5.30999 14.33 5.42999 14.33C5.57999 14.35 5.73999 14.36 5.88999 14.36C6.99999 14.36 8.09999 13.95 8.96999 13.24C9.79999 13.95 10.87 14.36 12.01 14.36C13.15 14.36 14.21 13.97 15.04 13.25C15.9 13.95 16.98 14.36 18.08 14.36C18.25 14.36 18.43 14.35 18.59 14.33C18.71 14.32 18.81 14.31 18.92 14.29C19.22 14.25 19.49 14.17 19.76 14.08C20.38 13.87 21.03 14.33 21.03 14.98V17.84C21.03 20.49 18.88 22.65 16.22 22.65H7.79999Z" fill="#888888"/>
<path d="M21.98 9.0901L21.7 6.4301C21.3 3.5301 19.98 2.3501 17.17 2.3501H6.81997C3.99997 2.3501 2.68997 3.5301 2.27997 6.4601L2.01997 9.1001C1.91997 10.1301 2.19997 11.1301 2.80997 11.9101C3.53997 12.8601 4.65997 13.4001 5.90997 13.4001C7.11997 13.4001 8.27997 12.7901 9.01997 11.8201C9.66997 12.7901 10.78 13.4001 12.02 13.4001C13.26 13.4001 14.35 12.8201 15.01 11.8601C15.75 12.8101 16.9 13.4001 18.09 13.4001C19.37 13.4001 20.52 12.8301 21.24 11.8301C21.82 11.0601 22.08 10.0901 21.98 9.0901ZM13.5 8.2301H10.5C10.09 8.2301 9.74997 7.9001 9.74997 7.4801C9.74997 7.0701 10.09 6.7301 10.5 6.7301H13.5C13.91 6.7301 14.25 7.0701 14.25 7.4801C14.25 7.9001 13.91 8.2301 13.5 8.2301Z" fill="#888888"/>
</svg>
